<svg id="Capa_1" enable-background="new 0 0 512.01 512.01" height="50" viewBox="0 0 512.01 512.01" width="50" xmlns="http://www.w3.org/2000/svg"><g><g><path d="m509.84 439.834-40.19-50.663c-1.369-1.727-3.271-2.952-5.408-3.487l-41.232-10.308-30.359-56.337c-1.744-3.238-5.125-5.256-8.803-5.256h-95.258c-3.213 0-6.229 1.543-8.109 4.149l-15.54 21.538-15.507-57.875c-.687-2.562-2.362-4.746-4.659-6.072-2.297-1.325-5.025-1.685-7.588-.999l-52.787 14.144-45.795-170.908 25.113-22.511c2.806-2.515 3.96-6.395 2.984-10.035l-7.519-28.062c12.89-6.056 20.024-20.677 16.211-34.905-2.074-7.74-7.038-14.21-13.978-18.216-6.939-4.006-15.022-5.07-22.765-2.997l-116.408 31.192c-15.978 4.281-25.494 20.764-21.213 36.742 3.588 13.388 15.74 22.24 28.985 22.239.831 0 1.668-.049 2.507-.119l7.52 28.065c.975 3.64 3.914 6.423 7.602 7.198l33.005 6.939 45.794 170.908-52.788 14.145c-5.334 1.429-8.5 6.913-7.071 12.248l19.797 73.883c4.625 17.263 13.33 32.945 25.373 45.91l-43.87 44.616c-2.825 2.873-3.65 7.161-2.092 10.877s5.193 6.134 9.223 6.134h218.832c5.522 0 10-4.477 10-10s-4.478-10-10-10h-194.976l66.115-67.239h52.809l14.515 20.321c1.952 2.732 5.025 4.188 8.146 4.188 2.012 0 4.042-.605 5.804-1.864 4.494-3.21 5.535-9.456 2.325-13.95l-13.334-18.667 58.454-81.017h84.17l26.306 48.817-27.818 31.371c-3.664 4.132-3.284 10.453.848 14.117 1.904 1.688 4.272 2.518 6.631 2.518 2.762 0 5.51-1.137 7.486-3.365l28.429-32.061 36.334 9.084 35.913 45.27v42.477h-108.158c-5.522 0-10 4.477-10 10s4.478 10 10 10h118.159c5.522 0 10-4.477 10-10v-55.961c.001-2.258-.763-4.448-2.165-6.216zm-366.192-148.696 19.319-5.176 16.653 62.15c1.427 5.326-1.746 10.82-7.072 12.248-2.581.691-5.274.336-7.588-.999-2.313-1.335-3.968-3.492-4.659-6.072zm-123.299-227.346c-.691-2.58-.336-5.275.999-7.588s3.492-3.968 6.072-4.659l116.407-31.191c.861-.231 1.736-.345 2.604-.345 1.733 0 3.443.455 4.983 1.344 2.313 1.335 3.968 3.492 4.659 6.072s.336 5.275-.999 7.588-3.492 3.968-6.072 4.659l-116.406 31.191c-5.325 1.427-10.82-1.745-12.247-7.071zm31.616 22.586 88.021-23.586 5.805 21.665-38.035 34.094-49.986-10.508zm56.636 52.789c.694.146 1.386.216 2.068.216 2.499 0 4.854-.948 6.654-2.556l.01.001 4.574-4.1 35.883 133.916-19.319 5.176-35.883-133.916zm52.194 265.604c-2.682 0-5.25 1.077-7.13 2.989l-27.879 28.353c-9.51-10.452-16.389-23.018-20.086-36.817l-17.21-64.223 43.128-11.557 9.364 34.948c2.074 7.74 7.038 14.209 13.978 18.216 4.623 2.668 9.752 4.032 14.951 4.032 2.606 0 5.229-.343 7.814-1.035 15.978-4.281 25.494-20.764 21.213-36.742l-9.364-34.948 43.128-11.556 17.14 63.965-32.017 44.375z"/><circle cx="338.844" cy="502.01" r="10"/></g></g></svg>