<svg id="Layer_3" height="50" viewBox="0 0 64 64" width="50" xmlns="http://www.w3.org/2000/svg" data-name="Layer 3"><path d="m17.273 36.522a12.084 12.084 0 0 0 -8.273 11.478v14a1 1 0 0 0 1 1h44a1 1 0 0 0 1-1v-14a12.084 12.084 0 0 0 -8.273-11.478l-9.727-3.243v-2.632a10.021 10.021 0 0 0 4.8-6.647h.2a3.987 3.987 0 0 0 2-7.444v-6.556a9.01 9.01 0 0 0 -9-9h-6a9.01 9.01 0 0 0 -9 9v6.556a3.987 3.987 0 0 0 2 7.444h.2a10.021 10.021 0 0 0 4.8 6.647v2.632zm-1.242 2.75 1.831 4.578-2.362 3.15h-4.445a10.074 10.074 0 0 1 4.976-7.728zm30.969-.497v2.225h-6v-4.279l5.094 1.7c.311.102.611.224.906.354zm-8-2.721v1.946h-2v2h2v2a1 1 0 0 0 1 1h1v2h2v-2h2v2h2v-2h1a1 1 0 0 0 1-1v-2.048a10.084 10.084 0 0 1 4 8.048v13h-7v-9h-2v9h-24v-9h-2v9h-7v-12h2v2h2v-2h1a1 1 0 0 0 .8-.4l1.144-1.526 1.821 1.5 1.271-1.545-1.89-1.556.654-.873a1 1 0 0 0 .129-.971l-.729-1.829 2.175-.869-.742-1.858-2.176.87-.6-1.5c.019-.006.036-.014.054-.02l9.824-3.275.149.149a5.828 5.828 0 0 0 8.242 0l.149-.149zm3-14.054v-4a2 2 0 0 1 0 4zm-13-19h6a7.008 7.008 0 0 1 7 7v2h-20v-2a7.008 7.008 0 0 1 7-7zm-7 11h20v2h-20zm-2 6a2 2 0 0 1 2-2v4a2 2 0 0 1 -2-2zm4 2v-4h16v4a8 8 0 0 1 -16 0zm8 10a9.986 9.986 0 0 0 3-.461v2.047l-.293.293a3.829 3.829 0 0 1 -5.414 0l-.293-.293v-2.047a9.986 9.986 0 0 0 3 .461z"/><path d="m26 53a3 3 0 1 0 3 3 3 3 0 0 0 -3-3zm0 4a1 1 0 1 1 1-1 1 1 0 0 1 -1 1z"/><path d="m33.447 26.342 1.106.553.894-1.79-1.105-.552a5.329 5.329 0 0 0 -4.684 0l-1.105.552.894 1.79 1.106-.553a3.29 3.29 0 0 1 2.894 0z"/></svg>