<svg xmlns="http://www.w3.org/2000/svg" width="91.23" height="62" viewBox="0 0 91.23 62">
  <g id="Grupo_62851" data-name="Grupo 62851" transform="translate(-55 -4176)">
    <g id="minero" transform="translate(45 4175)">
      <path id="Trazado_3389" data-name="Trazado 3389" d="M48.386,42.51,38,39.265V37.521A13.058,13.058,0,0,0,44.364,30H45.5a3.5,3.5,0,1,0,0-7H45V22h1a1,1,0,0,0,1-1V17a1,1,0,0,0-1-1H45A12.987,12.987,0,0,0,35.845,3.59l.15-1.49A1,1,0,0,0,35,1H29a1,1,0,0,0-1,1.1l.149,1.49A12.987,12.987,0,0,0,19,16H18a1,1,0,0,0-1,1v4a1,1,0,0,0,1,1h1v1h-.5a3.5,3.5,0,0,0,0,7h1.136A13.058,13.058,0,0,0,26,37.521v1.744L15.614,42.51A7.966,7.966,0,0,0,10,50.146V62a1,1,0,0,0,1,1H53a1,1,0,0,0,1-1V50.146a7.966,7.966,0,0,0-5.614-7.636ZM18,43.86l2-.625V61H18Zm8.362-2.613a6.111,6.111,0,0,0,11.276,0L42,42.61V49H22V42.61ZM22,51H42V61H22Zm22-7.765,2,.625V61H44ZM45.5,25a1.5,1.5,0,0,1,0,3h-.67A13.056,13.056,0,0,0,45,26V25ZM43,16H38.22l1.555-7.775A10.988,10.988,0,0,1,43,16ZM33.9,3l-.8,8H30.91l-.8-8Zm-4.89,9.1a1,1,0,0,0,1,.9h4a1,1,0,0,0,.995-.9l.648-6.483a10.935,10.935,0,0,1,2.41,1.193L38.02,6.8,36.18,16H27.82L25.98,6.8l-.033.006a10.935,10.935,0,0,1,2.41-1.193ZM24.23,8.225,25.78,16H21a10.987,10.987,0,0,1,3.224-7.774ZM19,18H45v2H19Zm-.5,10a1.5,1.5,0,1,1,0-3H19v1a13.056,13.056,0,0,0,.17,2ZM21,26V22H43v4a11,11,0,0,1-22,0ZM32,39a12.94,12.94,0,0,0,4-.636v1.513a4.122,4.122,0,0,1-8,0V38.364A12.94,12.94,0,0,0,32,39ZM12,50.146A5.964,5.964,0,0,1,16,44.5V61H12ZM52,61H48V44.5a5.964,5.964,0,0,1,4,5.642Z" fill="#7d7d7d"/>
      <rect id="Rect치ngulo_1539" data-name="Rect치ngulo 1539" width="2" height="4" transform="translate(26 23)" fill="#7d7d7d"/>
      <rect id="Rect치ngulo_1540" data-name="Rect치ngulo 1540" width="2" height="4" transform="translate(36 23)" fill="#7d7d7d"/>
      <path id="Trazado_3390" data-name="Trazado 3390" d="M37,30H35a3,3,0,0,1-6,0H27a5,5,0,0,0,10,0Z" fill="#7d7d7d"/>
    </g>
    <g id="minero-2" data-name="minero" transform="translate(42.709 4175.98)">
      <path id="Trazado_3398" data-name="Trazado 3398" d="M232.265,214.873a3.637,3.637,0,0,0,5.487,0,.93.93,0,1,0-1.4-1.222,1.777,1.777,0,0,1-2.682,0,.93.93,0,1,0-1.4,1.222Z" transform="translate(-155.852 -187.51)" fill="#7d7d7d"/>
      <path id="Trazado_3399" data-name="Trazado 3399" d="M282.855,169.175a.93.93,0,0,0-.93.93v1.24a.93.93,0,1,0,1.861,0v-1.24A.93.93,0,0,0,282.855,169.175Z" transform="translate(-199.655 -148.697)" fill="#7d7d7d"/>
      <path id="Trazado_3400" data-name="Trazado 3400" d="M216.005,169.175a.93.93,0,0,0-.93.93v1.24a.93.93,0,0,0,1.861,0v-1.24A.93.93,0,0,0,216.005,169.175Z" transform="translate(-140.893 -148.697)" fill="#7d7d7d"/>
      <path id="Trazado_3401" data-name="Trazado 3401" d="M211.005,145.338h1.24a.93.93,0,0,0,0-1.861h-1.24a.93.93,0,1,0,0,1.861Z" transform="translate(-136.51 -126.098)" fill="#7d7d7d"/>
      <path id="Trazado_3402" data-name="Trazado 3402" d="M277.855,145.338h1.24a.93.93,0,0,0,0-1.861h-1.24a.93.93,0,1,0,0,1.861Z" transform="translate(-195.278 -126.098)" fill="#7d7d7d"/>
      <path id="Trazado_3403" data-name="Trazado 3403" d="M103.4,56.45l-1.887-8.111a8.2,8.2,0,0,0-5.56-5.961l-8.54-2.624a8.4,8.4,0,0,0,1.169-.886.908.908,0,0,0,1.032.424c3.025-.844,4.885-4.354,4.423-8.346a17.5,17.5,0,0,0-.559-2.82c-.12-.448-.234-.877-.334-1.407a6.263,6.263,0,0,0,1.3-2.475,6.047,6.047,0,0,0-.242-3.976,4.73,4.73,0,0,0-.818-1.279c0-.033,0-.065,0-.1,0-.211,0-.421-.011-.632a2.166,2.166,0,0,0,.85-.2,2.151,2.151,0,0,0,.949-3.034,12.382,12.382,0,0,0-1.437-1.938C92.905,9.372,90.4,3.161,82.855,1.594a5.134,5.134,0,0,0-7.4,0C67.92,3.16,65.407,9.358,64.574,13.088a12.373,12.373,0,0,0-1.432,1.933,2.151,2.151,0,0,0,1.794,3.235c-.007.211-.011.423-.011.634,0,.035,0,.069,0,.1a4.731,4.731,0,0,0-.813,1.274,6.047,6.047,0,0,0-.242,3.976,6.264,6.264,0,0,0,1.3,2.475c-.1.53-.215.959-.334,1.407a17.482,17.482,0,0,0-.559,2.82c-.462,3.992,1.4,7.5,4.423,8.346a.908.908,0,0,0,1.032-.423,8.4,8.4,0,0,0,1.169.886l-8.54,2.624A8.2,8.2,0,0,0,56.8,48.34l-1.887,8.11a4.541,4.541,0,0,0,4.423,5.57H98.979a4.541,4.541,0,0,0,4.423-5.57ZM65.626,23.773A4.229,4.229,0,0,1,65.778,21a2.4,2.4,0,0,1,1.54-1.437,2.248,2.248,0,0,1,1.59.192,15.781,15.781,0,0,0-.3,2.079,5.005,5.005,0,0,0-1.351-.5.908.908,0,0,0-.4,1.773c1.634.364,1.768,1.44,1.778,1.562v-.007a15.54,15.54,0,0,0,.323,1.967C67.577,26.827,66.117,25.6,65.626,23.773ZM66.8,17.412a15.256,15.256,0,0,1,3.865-2.146A13.941,13.941,0,0,0,69.4,17.98a3.98,3.98,0,0,0-2.551-.176l-.073.022Q66.787,17.619,66.8,17.412Zm3.645,7.09,0-.023q-.069-.694-.07-1.412a12.542,12.542,0,0,1,3.233-8.673,28.019,28.019,0,0,1,11.093,0,12.537,12.537,0,0,1,3.233,8.673q0,.717-.07,1.412c0,.008,0,.015,0,.023a12.645,12.645,0,0,1-2.347,6.277q-.024.029-.046.06a7.531,7.531,0,0,1-12.631,0c-.014-.02-.029-.039-.044-.058A12.642,12.642,0,0,1,70.449,24.5Zm22.238-.73c-.491,1.831-1.952,3.055-3.336,2.852a15.565,15.565,0,0,0,.323-1.968v.007c.01-.121.144-1.2,1.778-1.562a.908.908,0,1,0-.4-1.773,5.006,5.006,0,0,0-1.351.5,15.779,15.779,0,0,0-.3-2.079A2.25,2.25,0,0,1,91,19.559,2.4,2.4,0,0,1,92.535,21a4.231,4.231,0,0,1,.151,2.778ZM91.5,17.408q.017.208.029.417l-.068-.02a3.981,3.981,0,0,0-2.551.176,13.93,13.93,0,0,0-1.269-2.714A15.262,15.262,0,0,1,91.5,17.408ZM74.286,50.577V42.415a9.676,9.676,0,0,0,9.742,0v8.162Zm4.871-14.492a9.062,9.062,0,0,0,5.2-1.677,24.914,24.914,0,0,0-.336,5.38c-.236.484-1.3,2.125-4.86,2.125s-4.624-1.642-4.86-2.125a24.91,24.91,0,0,0-.336-5.38A9.062,9.062,0,0,0,79.156,36.086ZM72.469,50.577H69.931V41.951l2.538-.78ZM68.72,52.7a.3.3,0,0,1,.3-.3H89.29a.3.3,0,0,1,.3.3,20.113,20.113,0,0,0,1.362,7.289l.084.218H67.274l.084-.218A20.115,20.115,0,0,0,68.72,52.7Zm19.662-2.119H85.844V41.171l2.538.78Zm2.065-13.74.135-1.317a.908.908,0,0,0-1.8-.233c-.014.084-.363,1.964-2.972,3.292a17.668,17.668,0,0,1,1.214-6.8,13.661,13.661,0,0,0,1.807-3.4,3.819,3.819,0,0,0,.8.087,4.229,4.229,0,0,0,1.93-.484c.053.213.107.416.161.616a15.748,15.748,0,0,1,.51,2.56,6.45,6.45,0,0,1-1.788,5.683Zm.66-26.091q-.126-.089-.256-.178a18.608,18.608,0,0,0-7.22-2.864,5.133,5.133,0,0,0,.494-3.879,11.726,11.726,0,0,1,6.982,6.92ZM79.156,1.836A3.329,3.329,0,0,1,81.6,7.429q-1.189-.109-2.443-.11t-2.443.11a3.33,3.33,0,0,1,2.443-5.592ZM74.188,3.827a5.133,5.133,0,0,0,.494,3.879,18.607,18.607,0,0,0-7.22,2.864c-.088.06-.175.12-.26.181a11.726,11.726,0,0,1,6.986-6.923ZM64.665,16.105a.329.329,0,0,1,.044-.167,12.555,12.555,0,0,1,3.772-3.867A18.654,18.654,0,0,1,79.156,9.135a18.654,18.654,0,0,1,10.675,2.937A12.553,12.553,0,0,1,93.6,15.939a.329.329,0,0,1,.044.167.319.319,0,0,1-.192.3.324.324,0,0,1-.361-.049c-2.345-1.977-6.667-4.335-13.938-4.335s-11.593,2.357-13.938,4.335a.324.324,0,0,1-.361.049A.319.319,0,0,1,64.665,16.105ZM69.533,35.3a.908.908,0,0,0-1.8.223l.135,1.317a6.45,6.45,0,0,1-1.788-5.683,15.752,15.752,0,0,1,.51-2.56c.053-.2.107-.4.161-.616a4.229,4.229,0,0,0,1.93.484,3.817,3.817,0,0,0,.8-.087,13.662,13.662,0,0,0,1.807,3.4,17.665,17.665,0,0,1,1.214,6.8c-2.608-1.328-2.957-3.207-2.97-3.282ZM57.2,59.173a2.711,2.711,0,0,1-.52-2.312l1.887-8.111a6.378,6.378,0,0,1,4.325-4.636l5.223-1.6v8.275A2.12,2.12,0,0,0,66.9,52.7a18.3,18.3,0,0,1-1.239,6.633l-.1.254A8.688,8.688,0,0,1,63.5,54.458a.908.908,0,1,0-1.805.2A11.1,11.1,0,0,0,63.719,60.2H59.334a2.71,2.71,0,0,1-2.134-1.03Zm43.912,0a2.71,2.71,0,0,1-2.134,1.03H94.593a11.094,11.094,0,0,0,2.025-5.544.908.908,0,0,0-1.805-.2,8.686,8.686,0,0,1-2.067,5.126l-.1-.254A18.305,18.305,0,0,1,91.409,52.7,2.12,2.12,0,0,0,90.2,50.785V42.51l5.223,1.6a6.378,6.378,0,0,1,4.325,4.636l1.887,8.111a2.71,2.71,0,0,1-.52,2.312Z" transform="translate(0 0)" fill="#7d7d7d"/>
    </g>
  </g>
</svg>
