<svg xmlns="http://www.w3.org/2000/svg" width="65" height="64.982" viewBox="0 0 65 64.982">
  <g id="meeting" transform="translate(-0.002 -0.071)">
    <path id="Trazado_3379" data-name="Trazado 3379" d="M58.287,97.135a7.029,7.029,0,0,0-.411-1.76c6.836-3.844,9.5-9.469,4.66-14.957v-5a4.588,4.588,0,0,0-4.25-4.584,7.022,7.022,0,0,0-.5-1.992A3.987,3.987,0,0,0,58.982,66V55.2a3.931,3.931,0,0,0-7.234-2.139,5.839,5.839,0,0,0-8.067,5.4v4.161a5.845,5.845,0,0,0,.679,2.741,7.2,7.2,0,0,0-3.688,6.512q-1.724-.2-3.5-.312a.959.959,0,0,0-.12,1.913c6.4.408,13.029,1.581,18.816,4.474,8.959,4.387,9.789,10.938,1.1,15.745a6.962,6.962,0,0,0-2.33-2.03,5.846,5.846,0,0,0,.678-2.74V84.761a5.817,5.817,0,1,0-11.634,0v4.161a5.845,5.845,0,0,0,.679,2.74,7.26,7.26,0,0,0-3.687,6.758,70.787,70.787,0,0,1-16.339,0,7.209,7.209,0,0,0-3.009-6.337V84.761a5.817,5.817,0,1,0-11.634,0v7.322a6.993,6.993,0,0,0-1.654,1.609C-.916,88.72.324,82.021,9.676,77.685c5.211-2.472,12.312-4,19.994-4.3a.959.959,0,0,0-.074-1.915c-1.786.07-3.542.206-5.255.4a7.24,7.24,0,0,0-3.7-6.511,5.845,5.845,0,0,0,.679-2.741V58.458A5.915,5.915,0,0,0,15.5,52.607,5.914,5.914,0,0,0,9.69,58.468v4.151a5.845,5.845,0,0,0,.679,2.74,7.014,7.014,0,0,0-3.65,5.473,4.588,4.588,0,0,0-4.25,4.584v5C-2.368,85.9.291,91.532,7.128,95.374a7.027,7.027,0,0,0-.408,1.76,4.588,4.588,0,0,0-4.251,4.584v5.071A3.343,3.343,0,0,0,5.8,110.14H18.285a.8.8,0,0,0,.7-.269l6.945-4.424a2.867,2.867,0,0,0-.392-4.969,73.31,73.31,0,0,0,13.88.005,2.867,2.867,0,0,0-.379,4.964l7.134,4.545a.958.958,0,0,0,.509.148H59.209a3.339,3.339,0,0,0,3.319-3.15.952.952,0,0,0-1.9-.114,1.428,1.428,0,0,1-1.419,1.347H47.633c0-1.619,0-4.9,0-6.5a2.673,2.673,0,0,1,2.661-2.679q3.838,0,7.677,0a2.737,2.737,0,0,1,2.661,2.807.952.952,0,0,0,1.9,0,4.635,4.635,0,0,0-4.249-4.712Zm2.346-21.719v3.247A21.148,21.148,0,0,0,58.324,77.1V72.763A2.675,2.675,0,0,1,60.632,75.416ZM55.053,53.163A2.034,2.034,0,0,1,57.078,55.2V66a2.033,2.033,0,0,1-.327,1.114,6.961,6.961,0,0,0-2.115-1.751,5.846,5.846,0,0,0,.679-2.741V58.458a5.851,5.851,0,0,0-1.957-4.372A2.02,2.02,0,0,1,55.053,53.163Zm-9.468,9.456v-1.3l7.827-1.665v2.969A3.926,3.926,0,0,1,49.5,66.554h-.011A3.926,3.926,0,0,1,45.584,62.619Zm2.629-7.877a3.894,3.894,0,0,1,1.287-.219,3.979,3.979,0,0,1,3.837,3.183l-7.754,1.65v-.888a3.949,3.949,0,0,1,2.629-3.726ZM42.576,72.119a5.278,5.278,0,0,1,2.968-5.212,5.812,5.812,0,0,0,7.908,0,5.1,5.1,0,0,1,2.968,4.635v4.543A47.909,47.909,0,0,0,42.576,72.119Zm-30.982-9.5v-1.3L19.42,59.65v2.969a3.926,3.926,0,0,1-3.908,3.935H15.5a3.926,3.926,0,0,1-3.908-3.935Zm2.629-7.877a3.894,3.894,0,0,1,1.287-.219,3.979,3.979,0,0,1,3.837,3.183l-7.754,1.65c-.09-1.976.607-3.9,2.629-4.614Zm-2.67,12.165a5.812,5.812,0,0,0,7.907,0,5.405,5.405,0,0,1,2.981,5.209,46.991,46.991,0,0,0-13.857,3.97V71.543a5.094,5.094,0,0,1,2.969-4.635ZM6.681,72.763V77.1a21.191,21.191,0,0,0-2.309,1.559V75.416a2.675,2.675,0,0,1,2.309-2.653ZM22.429,97.845v3.122l-3.154,1.982a6.808,6.808,0,0,0-.458-3.236A5.9,5.9,0,0,0,21.324,94.9C21.791,95.06,22.429,96.757,22.429,97.845ZM11.594,84.76a3.913,3.913,0,1,1,7.827,0V94.9a3.965,3.965,0,0,1-1.778,3.3,4.525,4.525,0,0,0-2.932-1.077H12.276a3.9,3.9,0,0,1-.683-2.221ZM10.126,97.123H8.637A5.073,5.073,0,0,1,9.69,94.67,6.425,6.425,0,0,0,10.126,97.123Zm-5.754,9.667v-5.071a2.673,2.673,0,0,1,2.661-2.679h7.677a2.673,2.673,0,0,1,2.661,2.679v6.5H5.8a1.43,1.43,0,0,1-1.424-1.434ZM24.9,103.832l-5.628,3.585v-2.208l4.61-2.9C24.811,101.721,25.986,103.109,24.9,103.832ZM45.584,84.76a3.913,3.913,0,1,1,7.827,0v4.161A3.926,3.926,0,0,1,49.5,92.856h-.011a3.926,3.926,0,0,1-3.908-3.935Zm-5.928,18.308a.926.926,0,0,1,1.426-.756l4.647,2.92v2.208l-5.666-3.609A.915.915,0,0,1,39.657,103.068Zm6.073-1.35v1.255l-3.154-1.982V97.845a5.085,5.085,0,0,1,2.968-4.635,5.812,5.812,0,0,0,7.907,0,5.085,5.085,0,0,1,2.917,3.912H50.294A4.585,4.585,0,0,0,45.729,101.719Z" transform="translate(0 -45.087)" fill="#7d7d7d"/>
    <path id="Trazado_3380" data-name="Trazado 3380" d="M224.469,266.3a6.522,6.522,0,0,0,7.442,6.434l2.308,1.353a.905.905,0,0,0,1.345-.771V270.9a6.5,6.5,0,1,0-11.1-4.6Zm6.5-4.715a4.724,4.724,0,0,1,3.11,8.256.894.894,0,0,0-.3.671v1.243l-1.244-.729c-.437-.256-1.152-.012-1.562-.012A4.715,4.715,0,0,1,230.971,261.585Z" transform="translate(-195.505 -226.139)" fill="#7d7d7d"/>
    <path id="Trazado_3381" data-name="Trazado 3381" d="M250.291,309.359a.894.894,0,0,0,0-1.787A.894.894,0,0,0,250.291,309.359Z" transform="translate(-217.712 -268.402)" fill="#7d7d7d"/>
    <path id="Trazado_3382" data-name="Trazado 3382" d="M272.662,309.359a.894.894,0,0,0,0-1.787A.894.894,0,0,0,272.662,309.359Z" transform="translate(-237.239 -268.402)" fill="#7d7d7d"/>
    <path id="Trazado_3383" data-name="Trazado 3383" d="M295.032,309.359a.894.894,0,0,0,0-1.787A.894.894,0,0,0,295.032,309.359Z" transform="translate(-256.765 -268.402)" fill="#7d7d7d"/>
    <path id="Trazado_3384" data-name="Trazado 3384" d="M178.854,21.022a.905.905,0,0,0,1.345.771l2.308-1.353a6.532,6.532,0,0,0,7.36-7.46,6.471,6.471,0,0,0,2.036.026l2.308,1.353a.905.905,0,0,0,1.345-.771V11.172A6.5,6.5,0,1,0,184.544,7.6a6.511,6.511,0,0,0-5.689,11.008v2.416ZM190.964,1.858a4.724,4.724,0,0,1,3.11,8.256.894.894,0,0,0-.3.671v1.243l-1.244-.729a2.985,2.985,0,0,0-1.562-.012,4.715,4.715,0,0,1,0-9.429ZM178.733,14.007a4.736,4.736,0,0,1,6.5-4.363,6.548,6.548,0,0,0,2.6,2.624,4.735,4.735,0,0,1-4.382,6.455,2.985,2.985,0,0,0-1.562.012l-1.244.729V18.22a.894.894,0,0,0-.3-.671A4.717,4.717,0,0,1,178.733,14.007Z" transform="translate(-153.788)" fill="#7d7d7d"/>
    <path id="Trazado_3385" data-name="Trazado 3385" d="M202.778,112.032a.894.894,0,0,0,0-1.787A.894.894,0,0,0,202.778,112.032Z" transform="translate(-176.24 -96.165)" fill="#7d7d7d"/>
    <path id="Trazado_3386" data-name="Trazado 3386" d="M225.148,112.032a.894.894,0,0,0,0-1.787A.894.894,0,0,0,225.148,112.032Z" transform="translate(-195.766 -96.165)" fill="#7d7d7d"/>
    <path id="Trazado_3387" data-name="Trazado 3387" d="M247.518,112.032a.894.894,0,0,0,0-1.787A.894.894,0,0,0,247.518,112.032Z" transform="translate(-215.292 -96.165)" fill="#7d7d7d"/>
    <path id="Trazado_3388" data-name="Trazado 3388" d="M275.1,39.577a.893.893,0,0,0,1.264,0l.829-.829.829.829a.894.894,0,0,0,1.264-1.264l-.829-.829.829-.829a.894.894,0,0,0-1.264-1.264l-.829.829-.829-.829a.894.894,0,0,0-1.264,1.264l.829.829-.829.829A.893.893,0,0,0,275.1,39.577Z" transform="translate(-239.772 -30.881)" fill="#7d7d7d"/>
  </g>
</svg>
